<svg width="4" height="18" viewBox="0 0 4 18" fill="none" xmlns="http://www.w3.org/2000/svg">
<path d="M2 1L2 1.75L2 1ZM3 2L3.75 2L3 2ZM2 3V3.75V3ZM1 2L1.75 2L1 2ZM2 8L2 8.75L2 8ZM3 9H3.75H3ZM2 10V10.75V10ZM1 9H1.75H1ZM2 15L2 15.75L2 15ZM3 16H3.75H3ZM2 17V17.75V17ZM1 16H1.75H1ZM2 1.75C2.13807 1.75 2.25 1.86193 2.25 2L3.75 2C3.75 1.0335 2.9665 0.25 2 0.25L2 1.75ZM2.25 2C2.25 2.13807 2.13807 2.25 2 2.25L2 3.75C2.9665 3.75 3.75 2.9665 3.75 2L2.25 2ZM2 2.25C1.86193 2.25 1.75 2.13807 1.75 2L0.25 2C0.25 2.9665 1.0335 3.75 2 3.75L2 2.25ZM1.75 2C1.75 1.86193 1.86193 1.75 2 1.75L2 0.25C1.0335 0.25 0.25 1.0335 0.25 2L1.75 2ZM2 8.75C2.13807 8.75 2.25 8.86193 2.25 9H3.75C3.75 8.0335 2.9665 7.25 2 7.25L2 8.75ZM2.25 9C2.25 9.13807 2.13807 9.25 2 9.25L2 10.75C2.9665 10.75 3.75 9.9665 3.75 9H2.25ZM2 9.25C1.86193 9.25 1.75 9.13807 1.75 9H0.25C0.25 9.9665 1.0335 10.75 2 10.75L2 9.25ZM1.75 9C1.75 8.86193 1.86193 8.75 2 8.75L2 7.25C1.0335 7.25 0.25 8.0335 0.25 9H1.75ZM2 15.75C2.13807 15.75 2.25 15.8619 2.25 16H3.75C3.75 15.0335 2.9665 14.25 2 14.25L2 15.75ZM2.25 16C2.25 16.1381 2.13807 16.25 2 16.25L2 17.75C2.9665 17.75 3.75 16.9665 3.75 16H2.25ZM2 16.25C1.86193 16.25 1.75 16.1381 1.75 16H0.25C0.25 16.9665 1.0335 17.75 2 17.75L2 16.25ZM1.75 16C1.75 15.8619 1.86193 15.75 2 15.75L2 14.25C1.0335 14.25 0.25 15.0335 0.25 16H1.75Z" fill="white"/>
</svg>
