<svg width="19" height="18" viewBox="0 0 19 18" fill="none" xmlns="http://www.w3.org/2000/svg">
<path fill-rule="evenodd" clip-rule="evenodd" d="M9.5 2.59231L1.92241 15.9308H17.0776L9.5 2.59231ZM10.3915 1.02308C9.99527 0.325641 9.00473 0.325641 8.60852 1.02308L0.139448 15.9308C-0.256766 16.6282 0.238502 17.5 1.03093 17.5H17.9691C18.7615 17.5 19.2568 16.6282 18.8606 15.9308L10.3915 1.02308Z" fill="#0D6EFD"/>
<path d="M10.1466 5.5L10.0614 11.7727H9.07272L8.98749 5.5H10.1466ZM9.56703 14.2955C9.35681 14.2955 9.17641 14.2202 9.02584 14.0696C8.87527 13.919 8.79999 13.7386 8.79999 13.5284C8.79999 13.3182 8.87527 13.1378 9.02584 12.9872C9.17641 12.8366 9.35681 12.7614 9.56703 12.7614C9.77726 12.7614 9.95766 12.8366 10.1082 12.9872C10.2588 13.1378 10.3341 13.3182 10.3341 13.5284C10.3341 13.6676 10.2986 13.7955 10.2275 13.9119C10.1594 14.0284 10.067 14.1222 9.95056 14.1932C9.83692 14.2614 9.70908 14.2955 9.56703 14.2955Z" fill="#0D6EFD"/>
</svg>
