<svg width="33" height="32" viewBox="0 0 33 32" fill="none" xmlns="http://www.w3.org/2000/svg">
<rect width="32" height="32" transform="translate(0.5)" fill="white"/>
<path d="M15.8938 5.65C16.1632 5.18333 16.8368 5.18333 17.1062 5.65L25.7665 20.65C26.0359 21.1167 25.6991 21.7 25.1603 21.7H7.83975C7.30089 21.7 6.9641 21.1167 7.23353 20.65L15.8938 5.65Z" stroke="black" stroke-width="0.6"/>
<path d="M17.0928 10.2L17.011 16.4727H16.0619L15.98 10.2H17.0928ZM16.5364 18.9954C16.3346 18.9954 16.1614 18.9201 16.0169 18.7696C15.8723 18.619 15.8 18.4386 15.8 18.2284C15.8 18.0181 15.8723 17.8377 16.0169 17.6872C16.1614 17.5366 16.3346 17.4613 16.5364 17.4613C16.7382 17.4613 16.9114 17.5366 17.056 17.6872C17.2005 17.8377 17.2728 18.0181 17.2728 18.2284C17.2728 18.3676 17.2387 18.4954 17.1705 18.6119C17.105 18.7284 17.0164 18.8221 16.9046 18.8931C16.7955 18.9613 16.6728 18.9954 16.5364 18.9954Z" fill="black"/>
</svg>
