<svg width="18" height="19" viewBox="0 0 18 19" fill="none" xmlns="http://www.w3.org/2000/svg">
<path d="M9 1L9.49388 0.435568C9.21111 0.188144 8.7889 0.188144 8.50613 0.435567L9 1ZM1 8L0.506122 7.43557C0.34336 7.57798 0.25 7.78373 0.25 8L1 8ZM17 8L17.75 8C17.75 7.78373 17.6566 7.57798 17.4939 7.43557L17 8ZM17 18V18.75C17.1989 18.75 17.3897 18.671 17.5303 18.5303C17.671 18.3897 17.75 18.1989 17.75 18H17ZM12 18H11.25C11.25 18.4142 11.5858 18.75 12 18.75V18ZM11.1213 11.8787L11.6517 11.3483L11.6517 11.3483L11.1213 11.8787ZM6 18V18.75C6.41422 18.75 6.75 18.4142 6.75 18H6ZM1 18H0.250004C0.250005 18.4142 0.585791 18.75 1 18.75V18ZM8.50613 0.435567L0.506122 7.43557L1.49388 8.56443L9.49388 1.56443L8.50613 0.435567ZM17.4939 7.43557L9.49388 0.435568L8.50613 1.56443L16.5061 8.56443L17.4939 7.43557ZM16.25 8L16.25 18H17.75L17.75 8L16.25 8ZM17 17.25H12V18.75H17V17.25ZM12.75 18V14H11.25V18H12.75ZM12.75 14C12.75 13.0054 12.3549 12.0516 11.6517 11.3483L10.591 12.409C11.013 12.831 11.25 13.4033 11.25 14H12.75ZM11.6517 11.3483C10.9484 10.6451 9.99457 10.25 9 10.25V11.75C9.59674 11.75 10.169 11.9871 10.591 12.409L11.6517 11.3483ZM9 10.25C8.00544 10.25 7.05162 10.6451 6.34835 11.3483L7.40901 12.409C7.83097 11.9871 8.40327 11.75 9 11.75V10.25ZM6.34835 11.3483C5.64509 12.0516 5.25 13.0054 5.25 14H6.75C6.75 13.4033 6.98706 12.831 7.40901 12.409L6.34835 11.3483ZM5.25 14V18H6.75V14H5.25ZM6 17.25H1V18.75H6V17.25ZM1.75 18L1.75 8L0.25 8L0.250004 18H1.75Z" fill="#0D6EFD"/>
</svg>
