<svg width="32" height="32" viewBox="0 0 32 32" fill="none" xmlns="http://www.w3.org/2000/svg">
<rect width="32" height="32" fill="white"/>
<path d="M7.99999 15L16 8L24 15L24 25H19V21C19 20.2044 18.6839 19.4413 18.1213 18.8787C17.5587 18.3161 16.7956 18 16 18C15.2043 18 14.4413 18.3161 13.8787 18.8787C13.3161 19.4413 13 20.2043 13 21V25H7.99999L7.99999 15Z" fill="#0D6EFD"/>
<path d="M16 8L16.3292 7.62371C16.1407 7.45876 15.8593 7.45876 15.6707 7.62371L16 8ZM7.99999 15L7.67073 14.6237C7.56223 14.7187 7.49999 14.8558 7.49999 15H7.99999ZM24 15H24.5C24.5 14.8558 24.4377 14.7187 24.3292 14.6237L24 15ZM24 25V25.5C24.1326 25.5 24.2598 25.4473 24.3535 25.3536C24.4473 25.2598 24.5 25.1326 24.5 25H24ZM19 25H18.5C18.5 25.2761 18.7238 25.5 19 25.5V25ZM18.1213 18.8787L18.4749 18.5251L18.4749 18.5251L18.1213 18.8787ZM13 25V25.5C13.2761 25.5 13.5 25.2761 13.5 25H13ZM7.99999 25H7.49999C7.49999 25.2761 7.72385 25.5 7.99999 25.5V25ZM15.6707 7.62371L7.67073 14.6237L8.32924 15.3763L16.3292 8.37629L15.6707 7.62371ZM24.3292 14.6237L16.3292 7.62371L15.6707 8.37629L23.6707 15.3763L24.3292 14.6237ZM23.5 15L23.5 25H24.5L24.5 15H23.5ZM24 24.5H19V25.5H24V24.5ZM19.5 25V21H18.5V25H19.5ZM19.5 21C19.5 20.0717 19.1312 19.1815 18.4749 18.5251L17.7678 19.2322C18.2366 19.7011 18.5 20.337 18.5 21H19.5ZM18.4749 18.5251C17.8185 17.8687 16.9282 17.5 16 17.5V18.5C16.663 18.5 17.2989 18.7634 17.7678 19.2322L18.4749 18.5251ZM16 17.5C15.0717 17.5 14.1815 17.8687 13.5251 18.5251L14.2322 19.2322C14.7011 18.7634 15.3369 18.5 16 18.5V17.5ZM13.5251 18.5251C12.8687 19.1815 12.5 20.0717 12.5 21H13.5C13.5 20.337 13.7634 19.7011 14.2322 19.2322L13.5251 18.5251ZM12.5 21V25H13.5V21H12.5ZM13 24.5H7.99999V25.5H13V24.5ZM8.49999 25L8.49999 15H7.49999L7.49999 25H8.49999Z" fill="#0D6EFD"/>
</svg>
