<svg width="32" height="32" viewBox="0 0 32 32" fill="none" xmlns="http://www.w3.org/2000/svg">
<rect width="32" height="32" fill="white"/>
<rect x="8" y="13.5" width="5" height="11" fill="#0D6EFD"/>
<rect x="19" y="13.5" width="5" height="11" fill="#0D6EFD"/>
<path d="M15 8.5H17.5L22 13.5L19 18.2651H12L10 13.5L15 8.5Z" fill="#0D6EFD"/>
<path d="M16 7.5L16.4939 6.93557C16.2111 6.68814 15.7889 6.68814 15.5061 6.93557L16 7.5ZM8 14.5L7.50612 13.9356C7.34336 14.078 7.25 14.2837 7.25 14.5L8 14.5ZM24 14.5L24.75 14.5C24.75 14.2837 24.6566 14.078 24.4939 13.9356L24 14.5ZM24 24.5V25.25C24.1989 25.25 24.3897 25.171 24.5303 25.0303C24.671 24.8897 24.75 24.6989 24.75 24.5H24ZM19 24.5H18.25C18.25 24.9142 18.5858 25.25 19 25.25V24.5ZM18.1213 18.3787L18.6517 17.8483L18.6517 17.8483L18.1213 18.3787ZM13 24.5V25.25C13.4142 25.25 13.75 24.9142 13.75 24.5H13ZM8 24.5H7.25C7.25 24.9142 7.58579 25.25 8 25.25V24.5ZM15.5061 6.93557L7.50612 13.9356L8.49388 15.0644L16.4939 8.06443L15.5061 6.93557ZM24.4939 13.9356L16.4939 6.93557L15.5061 8.06443L23.5061 15.0644L24.4939 13.9356ZM23.25 14.5L23.25 24.5H24.75L24.75 14.5L23.25 14.5ZM24 23.75H19V25.25H24V23.75ZM19.75 24.5V20.5H18.25V24.5H19.75ZM19.75 20.5C19.75 19.5054 19.3549 18.5516 18.6517 17.8483L17.591 18.909C18.013 19.331 18.25 19.9033 18.25 20.5H19.75ZM18.6517 17.8483C17.9484 17.1451 16.9946 16.75 16 16.75V18.25C16.5967 18.25 17.169 18.4871 17.591 18.909L18.6517 17.8483ZM16 16.75C15.0054 16.75 14.0516 17.1451 13.3484 17.8483L14.409 18.909C14.831 18.4871 15.4033 18.25 16 18.25V16.75ZM13.3484 17.8483C12.6451 18.5516 12.25 19.5054 12.25 20.5H13.75C13.75 19.9033 13.9871 19.331 14.409 18.909L13.3484 17.8483ZM12.25 20.5V24.5H13.75V20.5H12.25ZM13 23.75H8V25.25H13V23.75ZM8.75 24.5L8.75 14.5L7.25 14.5L7.25 24.5H8.75Z" fill="#0D6EFD"/>
</svg>
