<svg width="56" height="56" viewBox="0 0 56 56" fill="none" xmlns="http://www.w3.org/2000/svg">
<path d="M36.4143 29.4142C37.1953 28.6332 37.1953 27.3668 36.4143 26.5858C35.6332 25.8047 34.3669 25.8047 33.5858 26.5858L36.4143 29.4142ZM25.2 37.8001L23.7857 39.2143C24.1608 39.5894 24.6695 39.8001 25.1999 39.8001C25.7304 39.8001 26.2391 39.5894 26.6142 39.2143L25.2 37.8001ZM22.4144 32.1859C21.6334 31.4048 20.367 31.4048 19.586 32.1858C18.8049 32.9668 18.8049 34.2332 19.5859 35.0142L22.4144 32.1859ZM44.3333 10.5H46.3333C46.3333 9.39543 45.4379 8.5 44.3333 8.5V10.5ZM44.3333 49V51C45.4379 51 46.3333 50.1046 46.3333 49H44.3333ZM11.6667 49H9.66666C9.66666 50.1046 10.5621 51 11.6667 51V49ZM11.6667 10.5V8.5C10.5621 8.5 9.66666 9.39543 9.66666 10.5H11.6667ZM21 7V5C19.8954 5 19 5.89543 19 7H21ZM35 7H37C37 5.89543 36.1046 5 35 5V7ZM35 14V16C36.1046 16 37 15.1046 37 14H35ZM21 14H19C19 15.1046 19.8954 16 21 16V14ZM33.5858 26.5858L23.7857 36.3859L26.6142 39.2143L36.4143 29.4142L33.5858 26.5858ZM19.5859 35.0142L23.7857 39.2143L26.6142 36.3859L22.4144 32.1859L19.5859 35.0142ZM42.3333 10.5V49H46.3333V10.5H42.3333ZM44.3333 47H11.6667V51H44.3333V47ZM13.6667 49V10.5H9.66666V49H13.6667ZM11.6667 12.5H21V8.5H11.6667V12.5ZM44.3333 8.5H35V12.5H44.3333V8.5ZM21 9H35V5H21V9ZM35 12H21V16H35V12ZM23 14V10.5H19V14H23ZM23 10.5V7H19V10.5H23ZM33 7V10.5H37V7H33ZM33 10.5V14H37V10.5H33Z" fill="#0D6EFD"/>
</svg>
