<svg width="33" height="32" viewBox="0 0 33 32" fill="none" xmlns="http://www.w3.org/2000/svg">
<rect width="32" height="32" transform="translate(0.5)" fill="white"/>
<path d="M23.7929 24.7071C24.1834 25.0976 24.8166 25.0976 25.2071 24.7071C25.5976 24.3166 25.5976 23.6834 25.2071 23.2929L23.7929 24.7071ZM21.0104 19.0962C20.6199 18.7057 19.9867 18.7057 19.5962 19.0962C19.2057 19.4867 19.2057 20.1199 19.5962 20.5104L21.0104 19.0962ZM15 21C11.4101 21 8.5 18.0899 8.5 14.5H6.5C6.5 19.1944 10.3056 23 15 23V21ZM8.5 14.5C8.5 10.9101 11.4101 8 15 8V6C10.3056 6 6.5 9.80558 6.5 14.5H8.5ZM15 8C18.5899 8 21.5 10.9101 21.5 14.5H23.5C23.5 9.80558 19.6944 6 15 6V8ZM21.5 14.5C21.5 18.0899 18.5899 21 15 21V23C19.6944 23 23.5 19.1944 23.5 14.5H21.5ZM25.2071 23.2929L21.0104 19.0962L19.5962 20.5104L23.7929 24.7071L25.2071 23.2929Z" fill="#0D6EFD"/>
</svg>
