<svg width="25" height="24" viewBox="0 0 25 24" fill="none" xmlns="http://www.w3.org/2000/svg">
<path d="M19.9697 20.5303C20.2626 20.8232 20.7374 20.8232 21.0303 20.5303C21.3232 20.2374 21.3232 19.7626 21.0303 19.4697L19.9697 20.5303ZM16.8336 15.273C16.5407 14.9801 16.0659 14.9801 15.773 15.273C15.4801 15.5659 15.4801 16.0408 15.773 16.3336L16.8336 15.273ZM11 17.25C7.27208 17.25 4.25 14.2279 4.25 10.5H2.75C2.75 15.0563 6.44365 18.75 11 18.75V17.25ZM4.25 10.5C4.25 6.77208 7.27208 3.75 11 3.75V2.25C6.44365 2.25 2.75 5.94365 2.75 10.5H4.25ZM11 3.75C14.7279 3.75 17.75 6.77208 17.75 10.5H19.25C19.25 5.94365 15.5563 2.25 11 2.25V3.75ZM17.75 10.5C17.75 14.2279 14.7279 17.25 11 17.25V18.75C15.5563 18.75 19.25 15.0563 19.25 10.5H17.75ZM21.0303 19.4697L16.8336 15.273L15.773 16.3336L19.9697 20.5303L21.0303 19.4697Z" fill="#0D6EFD"/>
</svg>
