<svg width="33" height="32" viewBox="0 0 33 32" fill="none" xmlns="http://www.w3.org/2000/svg">
<rect width="32" height="32" transform="translate(0.5)" fill="white"/>
<path d="M24.1464 24.3536C24.3417 24.5488 24.6583 24.5488 24.8536 24.3536C25.0488 24.1583 25.0488 23.8417 24.8536 23.6465L24.1464 24.3536ZM20.6569 19.4498C20.4616 19.2545 20.145 19.2545 19.9497 19.4498C19.7545 19.645 19.7545 19.9616 19.9497 20.1569L20.6569 19.4498ZM15 21.5C11.134 21.5 8 18.366 8 14.5H7C7 18.9183 10.5817 22.5 15 22.5V21.5ZM8 14.5C8 10.634 11.134 7.5 15 7.5V6.5C10.5817 6.5 7 10.0817 7 14.5H8ZM15 7.5C18.866 7.5 22 10.634 22 14.5H23C23 10.0817 19.4183 6.5 15 6.5V7.5ZM22 14.5C22 18.366 18.866 21.5 15 21.5V22.5C19.4183 22.5 23 18.9183 23 14.5H22ZM24.8536 23.6465L20.6569 19.4498L19.9497 20.1569L24.1464 24.3536L24.8536 23.6465Z" fill="#585858"/>
</svg>
